<svg width="350" height="212" viewBox="0 0 350 212" fill="none" xmlns="http://www.w3.org/2000/svg">
<path d="M45.3888 211.186H4.2064C3.09123 211.185 2.02207 210.744 1.2335 209.961C0.444926 209.177 0.00133053 208.115 0 207.007V150.601C0.00133487 149.493 0.444927 148.431 1.2335 147.648C2.02207 146.864 3.09124 146.424 4.2064 146.422H45.3888C46.504 146.424 47.5731 146.864 48.3617 147.648C49.1502 148.431 49.5939 149.493 49.5952 150.601V207.007C49.5939 208.115 49.1502 209.177 48.3617 209.961C47.5731 210.744 46.504 211.185 45.3888 211.186Z" fill="black"/>
<path d="M120.49 211.186H79.3072C78.1921 211.185 77.1229 210.745 76.3343 209.961C75.5458 209.178 75.1022 208.115 75.1008 207.007V97.1012C75.1022 95.9932 75.5458 94.9309 76.3343 94.1475C77.1229 93.3641 78.1921 92.9234 79.3072 92.9221H120.49C121.605 92.9234 122.674 93.3641 123.462 94.1475C124.251 94.9309 124.695 95.9932 124.696 97.1012V207.007C124.695 208.115 124.251 209.178 123.462 209.961C122.674 210.745 121.605 211.185 120.49 211.186Z" fill="#9D9D9D"/>
<path d="M195.591 211.186H154.409C153.294 211.185 152.224 210.744 151.436 209.961C150.647 209.177 150.204 208.115 150.202 207.007V150.601C150.204 149.493 150.647 148.431 151.436 147.648C152.224 146.864 153.294 146.424 154.409 146.422H195.591C196.706 146.424 197.776 146.864 198.564 147.648C199.353 148.431 199.796 149.493 199.798 150.601V207.007C199.796 208.115 199.353 209.177 198.564 209.961C197.776 210.744 196.706 211.185 195.591 211.186Z" fill="black"/>
<path d="M270.693 211.186H229.51C228.421 211.21 227.366 210.803 226.578 210.055C225.789 209.307 225.331 208.279 225.304 207.197V75.7931C225.331 74.7105 225.789 73.6826 226.578 72.9348C227.366 72.1869 228.421 71.7801 229.51 71.8034H270.693C271.783 71.7801 272.837 72.1869 273.626 72.9348C274.414 73.6826 274.872 74.7105 274.899 75.7931V207.197C274.872 208.279 274.414 209.307 273.626 210.055C272.837 210.803 271.783 211.21 270.693 211.186Z" fill="#9D9D9D"/>
<path d="M345.794 211.186H304.611C303.496 211.185 302.427 210.744 301.638 209.961C300.85 209.178 300.406 208.115 300.405 207.007V37.9688C300.406 36.8608 300.85 35.7986 301.638 35.0151C302.427 34.2317 303.496 33.791 304.611 33.7898H345.794C346.909 33.791 347.978 34.2317 348.766 35.0151C349.555 35.7986 349.999 36.8608 350 37.9688V207.007C349.999 208.115 349.555 209.178 348.766 209.961C347.978 210.744 346.909 211.185 345.794 211.186Z" fill="black"/>
<path d="M24.7975 129.527C29.493 129.527 33.2995 125.745 33.2995 121.08C33.2995 116.415 29.493 112.633 24.7975 112.633C20.1019 112.633 16.2954 116.415 16.2954 121.08C16.2954 125.745 20.1019 129.527 24.7975 129.527Z" fill="black"/>
<path d="M99.8985 74.6193C104.594 74.6193 108.401 70.8372 108.401 66.1718C108.401 61.5064 104.594 57.7244 99.8985 57.7244C95.203 57.7244 91.3965 61.5064 91.3965 66.1718C91.3965 70.8372 95.203 74.6193 99.8985 74.6193Z" fill="black"/>
<path d="M175 129.527C179.696 129.527 183.502 125.745 183.502 121.08C183.502 116.415 179.696 112.633 175 112.633C170.305 112.633 166.498 116.415 166.498 121.08C166.498 125.745 170.305 129.527 175 129.527Z" fill="black"/>
<path d="M250.102 47.8689C254.797 47.8689 258.604 44.0869 258.604 39.4214C258.604 34.756 254.797 30.974 250.102 30.974C245.406 30.974 241.6 34.756 241.6 39.4214C241.6 44.0869 245.406 47.8689 250.102 47.8689Z" fill="black"/>
<path d="M325.203 16.8949C329.898 16.8949 333.705 13.1129 333.705 8.44745C333.705 3.78205 329.898 0 325.203 0C320.507 0 316.7 3.78205 316.7 8.44745C316.7 13.1129 320.507 16.8949 325.203 16.8949Z" fill="black"/>
<path d="M175.179 122.972L99.8992 66.9489L25.6466 122.207L23.948 119.954L99.8992 63.4297L174.82 119.187L249.273 38.236L249.571 38.1152L324.673 8.0509L325.732 10.6625L250.929 40.6077L175.179 122.972Z" fill="black"/>
</svg>
