<svg width="85" height="37" viewBox="0 0 85 37" fill="none" xmlns="http://www.w3.org/2000/svg">
<path d="M0.764205 37H23.7045V33.0938H6.80114V32.8097L14.9688 24.0739C21.2188 17.38 23.0653 14.255 23.0653 10.2244C23.0653 4.61363 18.5199 0.139203 12.1278 0.139203C5.75355 0.139203 0.90625 4.47159 0.90625 10.8636H5.09659C5.09659 6.72656 7.7777 3.97443 11.9858 3.97443C15.9276 3.97443 18.946 6.3892 18.946 10.2244C18.946 13.5803 16.9751 16.0661 12.767 20.6648L0.764205 33.804V37ZM29.4041 29.5426H46.5206V37H50.7109V29.5426H55.6825V25.6364H50.7109V0.636363H45.3842L29.4041 25.9205V29.5426ZM46.5206 25.6364H34.1626V25.3523L46.2365 6.24716H46.5206V25.6364ZM66.5978 20.5938C66.5978 15.8352 69.6341 13.1364 73.7711 13.1364C77.7129 13.1364 80.0922 15.6222 80.0922 19.9545V37H84.2825V19.6705C84.2825 12.657 80.5538 9.37216 74.9785 9.37216C70.6816 9.37216 68.2314 11.1655 66.9529 13.9886H66.5978V0.636363H62.4075V37H66.5978V20.5938Z" fill="black"/>
</svg>
