<svg width="45" height="45" viewBox="0 0 45 45" fill="none" xmlns="http://www.w3.org/2000/svg">
<path fill-rule="evenodd" clip-rule="evenodd" d="M13.9968 1.99875C16.1962 1.8975 16.8974 1.875 22.4999 1.875C28.1024 1.875 28.8037 1.89937 31.0012 1.99875C33.1987 2.09812 34.6987 2.44875 36.0112 2.95687C37.3856 3.47625 38.6324 4.28812 39.6637 5.33812C40.7137 6.3675 41.5237 7.6125 42.0412 8.98875C42.5512 10.3012 42.8999 11.8012 43.0012 13.995C43.1024 16.1981 43.1249 16.8994 43.1249 22.5C43.1249 28.1025 43.1006 28.8037 43.0012 31.0031C42.9018 33.1969 42.5512 34.6969 42.0412 36.0094C41.5237 37.3858 40.7123 38.6329 39.6637 39.6637C38.6324 40.7137 37.3856 41.5237 36.0112 42.0412C34.6987 42.5512 33.1987 42.9 31.0049 43.0012C28.8037 43.1025 28.1024 43.125 22.4999 43.125C16.8974 43.125 16.1962 43.1006 13.9968 43.0012C11.8031 42.9019 10.3031 42.5512 8.99056 42.0412C7.61416 41.5237 6.3671 40.7123 5.33619 39.6637C4.2869 38.6337 3.4749 37.3873 2.95681 36.0112C2.44869 34.6987 2.09994 33.1987 1.99869 31.005C1.89744 28.8019 1.87494 28.1006 1.87494 22.5C1.87494 16.8975 1.89931 16.1962 1.99869 13.9987C2.09806 11.8012 2.44869 10.3012 2.95681 8.98875C3.47567 7.61265 4.28829 6.36621 5.33806 5.33625C6.36751 4.28719 7.61332 3.47521 8.98869 2.95687C10.3012 2.44875 11.8012 2.1 13.9949 1.99875H13.9968ZM30.8343 5.71125C28.6593 5.61187 28.0068 5.59125 22.4999 5.59125C16.9931 5.59125 16.3406 5.61187 14.1656 5.71125C12.1537 5.80312 11.0624 6.13875 10.3349 6.42187C9.37306 6.79687 8.68494 7.24125 7.96306 7.96312C7.27877 8.62885 6.75215 9.43928 6.42181 10.335C6.13869 11.0625 5.80306 12.1537 5.71119 14.1656C5.61181 16.3406 5.59119 16.9931 5.59119 22.5C5.59119 28.0069 5.61181 28.6594 5.71119 30.8344C5.80306 32.8462 6.13869 33.9375 6.42181 34.665C6.75181 35.5594 7.27869 36.3712 7.96306 37.0369C8.62869 37.7212 9.44056 38.2481 10.3349 38.5781C11.0624 38.8612 12.1537 39.1969 14.1656 39.2887C16.3406 39.3881 16.9912 39.4087 22.4999 39.4087C28.0087 39.4087 28.6593 39.3881 30.8343 39.2887C32.8462 39.1969 33.9374 38.8612 34.6649 38.5781C35.6268 38.2031 36.3149 37.7587 37.0368 37.0369C37.7212 36.3712 38.2481 35.5594 38.5781 34.665C38.8612 33.9375 39.1968 32.8462 39.2887 30.8344C39.3881 28.6594 39.4087 28.0069 39.4087 22.5C39.4087 16.9931 39.3881 16.3406 39.2887 14.1656C39.1968 12.1537 38.8612 11.0625 38.5781 10.335C38.2031 9.37312 37.7587 8.685 37.0368 7.96312C36.3711 7.27888 35.5606 6.75227 34.6649 6.42187C33.9374 6.13875 32.8462 5.80312 30.8343 5.71125ZM19.8656 28.8581C21.3368 29.4706 22.975 29.5532 24.5004 29.092C26.0258 28.6307 27.3438 27.6542 28.2292 26.3292C29.1146 25.0042 29.5125 23.4129 29.355 21.8271C29.1975 20.2413 28.4943 18.7593 27.3656 17.6344C26.646 16.9153 25.776 16.3646 24.8181 16.0221C23.8602 15.6797 22.8382 15.5538 21.8259 15.6537C20.8135 15.7535 19.8358 16.0766 18.9633 16.5996C18.0908 17.1227 17.3451 17.8326 16.7799 18.6785C16.2147 19.5243 15.844 20.4849 15.6947 21.4912C15.5453 22.4974 15.6208 23.5243 15.9159 24.4978C16.2111 25.4714 16.7183 26.3674 17.4013 27.1213C18.0842 27.8753 18.9259 28.4685 19.8656 28.8581ZM15.0037 15.0037C15.9881 14.0193 17.1568 13.2384 18.443 12.7057C19.7292 12.1729 21.1078 11.8987 22.4999 11.8987C23.8921 11.8987 25.2707 12.1729 26.5569 12.7057C27.8431 13.2384 29.0118 14.0193 29.9962 15.0037C30.9806 15.9882 31.7615 17.1568 32.2943 18.4431C32.827 19.7293 33.1012 21.1078 33.1012 22.5C33.1012 23.8922 32.827 25.2707 32.2943 26.5569C31.7615 27.8431 30.9806 29.0118 29.9962 29.9962C28.0081 31.9844 25.3116 33.1013 22.4999 33.1013C19.6883 33.1013 16.9918 31.9844 15.0037 29.9962C13.0156 28.0081 11.8986 25.3116 11.8986 22.5C11.8986 19.6884 13.0156 16.9919 15.0037 15.0037ZM35.4524 13.4775C35.6964 13.2474 35.8917 12.9706 36.0268 12.6637C36.1618 12.3567 36.234 12.0258 36.2388 11.6905C36.2437 11.3552 36.1813 11.0223 36.0552 10.7115C35.9291 10.4008 35.742 10.1185 35.5049 9.88132C35.2677 9.64419 34.9854 9.45704 34.6747 9.33097C34.3639 9.2049 34.031 9.14245 33.6957 9.14734C33.3604 9.15223 33.0294 9.22435 32.7225 9.35943C32.4155 9.49451 32.1388 9.6898 31.9087 9.93375C31.4611 10.4082 31.2161 11.0384 31.2256 11.6905C31.2351 12.3426 31.4984 12.9654 31.9596 13.4266C32.4208 13.8878 33.0436 14.1511 33.6957 14.1606C34.3478 14.1701 34.978 13.925 35.4524 13.4775Z" fill="black"/>
</svg>
