<svg width="45" height="45" viewBox="0 0 45 45" fill="none" xmlns="http://www.w3.org/2000/svg">
<path d="M20.0531 16.7569V19.3387H18.1631V22.4944H20.0531V31.875H23.9381V22.4944H26.5443C26.5443 22.4944 26.79 20.9812 26.9081 19.3256H23.9531V17.1694C23.9531 16.845 24.3768 16.4119 24.7968 16.4119H26.9118V13.125H24.0337C19.9575 13.125 20.0531 16.2844 20.0531 16.7569Z" fill="black"/>
<path d="M22.5 37.5C26.4783 37.5 30.2936 35.9197 33.1066 33.1066C35.9197 30.2936 37.5 26.4783 37.5 22.5C37.5 18.5218 35.9197 14.7064 33.1066 11.8934C30.2936 9.08035 26.4783 7.5 22.5 7.5C18.5218 7.5 14.7064 9.08035 11.8934 11.8934C9.08035 14.7064 7.5 18.5218 7.5 22.5C7.5 26.4783 9.08035 30.2936 11.8934 33.1066C14.7064 35.9197 18.5218 37.5 22.5 37.5ZM22.5 41.25C12.1444 41.25 3.75 32.8556 3.75 22.5C3.75 12.1444 12.1444 3.75 22.5 3.75C32.8556 3.75 41.25 12.1444 41.25 22.5C41.25 32.8556 32.8556 41.25 22.5 41.25Z" fill="black"/>
</svg>
