<svg width="40" height="20" viewBox="0 0 40 20" fill="none" xmlns="http://www.w3.org/2000/svg">
<path d="M39.7889 12.6803C39.8914 12.8552 39.9584 13.0487 39.9858 13.2496C40.0133 13.4504 40.0008 13.6548 39.9489 13.8508C39.8971 14.0468 39.807 14.2306 39.6839 14.3917C39.5607 14.5527 39.4069 14.6878 39.2313 14.7892C39.0557 14.8906 38.8618 14.9562 38.6608 14.9824C38.4597 15.0085 38.2555 14.9946 38.0598 14.9415C37.8642 14.8884 37.6809 14.7971 37.5207 14.6728C37.3605 14.5486 37.2264 14.3939 37.1262 14.2177L33.5937 8.09913C31.5124 9.49303 29.2236 10.5488 26.8123 11.2273L27.9294 17.5622C28.0001 17.9638 27.9085 18.377 27.6746 18.711C27.4407 19.045 27.0838 19.2724 26.6822 19.3433C26.5934 19.3588 26.5035 19.3667 26.4134 19.3667C26.0523 19.3662 25.7029 19.2386 25.4264 19.0064C25.15 18.7741 24.964 18.452 24.9012 18.0965L23.8023 11.8647C21.2862 12.2323 18.7299 12.2314 16.2141 11.862L15.1152 18.0936C15.0525 18.4493 14.8666 18.7715 14.5901 19.0039C14.3136 19.2362 13.9642 19.3639 13.603 19.3644C13.513 19.3644 13.4231 19.3565 13.3344 19.341C12.9328 19.2702 12.5758 19.0427 12.3419 18.7087C12.1081 18.3747 12.0164 17.9615 12.0872 17.5599L13.2045 11.2225C10.796 10.5429 8.51011 9.48688 6.43138 8.09356L2.87813 14.248C2.77856 14.4255 2.64475 14.5814 2.48446 14.7068C2.32417 14.8321 2.14059 14.9244 1.94436 14.9783C1.74814 15.0322 1.54317 15.0465 1.34134 15.0206C1.13951 14.9947 0.944848 14.9289 0.768628 14.8271C0.592407 14.7254 0.43814 14.5897 0.314771 14.4279C0.191401 14.266 0.101385 14.0813 0.0499409 13.8844C-0.00150305 13.6876 -0.0133508 13.4824 0.0150843 13.2809C0.0435193 13.0795 0.111672 12.8856 0.215589 12.7107L3.96236 6.22104C2.65554 5.09635 1.45386 3.85498 0.372209 2.51232C0.243567 2.35547 0.147238 2.17472 0.088772 1.98047C0.0303061 1.78623 0.0108601 1.58233 0.0315543 1.38054C0.0522485 1.17874 0.112674 0.983038 0.209348 0.804703C0.306022 0.626367 0.437034 0.468927 0.594832 0.341456C0.752631 0.213984 0.934097 0.119003 1.12877 0.0619835C1.32345 0.00496431 1.52748 -0.012965 1.72912 0.00922989C1.93075 0.0314247 2.126 0.0933043 2.30361 0.191303C2.48122 0.289301 2.63768 0.42148 2.76398 0.580223C3.9645 2.07414 5.33458 3.42346 6.84666 4.60103C6.85877 4.60948 6.86972 4.61909 6.88144 4.62793C10.6336 7.54709 15.263 9.11089 20.0168 9.06498C24.7693 9.11079 29.3976 7.54771 33.1492 4.62985C33.1594 4.62217 33.1688 4.61429 33.1792 4.60679C34.6942 3.42785 36.0668 2.07657 37.2693 0.580223C37.5266 0.266493 37.8976 0.0672085 38.3012 0.025815C38.7048 -0.0155784 39.1085 0.104277 39.4241 0.35925C39.7397 0.614224 39.9418 0.983638 39.9862 1.38696C40.0306 1.79028 39.9137 2.19479 39.6611 2.51232C38.5773 3.85757 37.373 5.10114 36.0633 6.22757L39.7889 12.6803Z" fill="black"/>
</svg>
