<svg width="80" height="80" viewBox="0 0 80 80" fill="none" xmlns="http://www.w3.org/2000/svg">
<path d="M46.9975 25.8967L46.9956 25.8943C45.7866 24.3296 43.65 22.7 40.2333 22.7C38.7781 22.7 36.8766 23.0825 35.3215 24.0173C33.7497 24.9622 32.5 26.4981 32.5 28.7667C32.5 31.2016 33.9544 32.7955 35.9905 33.9782C37.7988 35.0285 40.1572 35.8089 42.5544 36.6021C42.8267 36.6922 43.0996 36.7825 43.3722 36.8734C46.9379 38.1117 49.8771 39.6622 51.9147 41.78C53.9371 43.8821 55.0989 46.5712 55.0666 50.1622V50.1667C55.0666 55.7162 52.19 58.7863 49.272 60.4979C46.474 62.139 43.6524 62.5192 43.2876 62.5684C43.2688 62.5709 43.2565 62.5726 43.2511 62.5735L42.8333 62.6431V63.0667V66.6667C42.8333 68.2239 41.5572 69.5 40 69.5C38.4428 69.5 37.1666 68.2239 37.1666 66.6667V62.9V62.5013L36.7779 62.4125C30.8304 61.055 27.8002 57.3173 26.2125 54.2403C25.4473 52.706 26.1545 50.8539 27.7566 50.1958L27.7737 50.1888L27.7902 50.1805L27.9742 50.0886C29.3543 49.5224 30.9875 50.0543 31.6547 51.3607L31.6546 51.3608L31.659 51.3689C32.9966 53.8727 35.6636 57.1667 40.6333 57.1667C42.5727 57.1667 44.6538 56.6836 46.2659 55.5792C47.8978 54.4612 49.0333 52.7129 49.0333 50.2667C49.0333 48.1979 48.2648 46.5863 46.6712 45.2204C45.1094 43.8817 42.7596 42.782 39.6013 41.6624C39.5372 41.6395 39.4729 41.6166 39.4084 41.5936C36.5876 40.5879 33.4041 39.4528 30.8963 37.567C28.3614 35.6608 26.5333 32.9994 26.5333 28.9C26.5333 22.0095 32.3113 18.4013 36.7633 17.5239L37.1666 17.4444V17.0333V13.3333C37.1666 11.7761 38.4428 10.5 40 10.5C41.5572 10.5 42.8333 11.7761 42.8333 13.3333V16.9333V17.3569L43.2511 17.4265C47.5032 18.1352 50.1299 20.3511 51.6666 22.4L51.6666 22.4L51.672 22.407C52.869 23.946 52.2707 26.1643 50.5086 26.9047C49.2639 27.4128 47.8348 26.9939 46.9975 25.8967Z" fill="black" stroke="black"/>
</svg>
