<svg width="45" height="45" viewBox="0 0 45 45" fill="none" xmlns="http://www.w3.org/2000/svg">
<path d="M22.5 37.5C26.4783 37.5 30.2936 35.9197 33.1066 33.1066C35.9197 30.2936 37.5 26.4783 37.5 22.5C37.5 18.5218 35.9197 14.7064 33.1066 11.8934C30.2936 9.08035 26.4783 7.5 22.5 7.5C18.5218 7.5 14.7064 9.08035 11.8934 11.8934C9.08035 14.7064 7.5 18.5218 7.5 22.5C7.5 26.4783 9.08035 30.2936 11.8934 33.1066C14.7064 35.9197 18.5218 37.5 22.5 37.5ZM22.5 41.25C12.1444 41.25 3.75 32.8556 3.75 22.5C3.75 12.1444 12.1444 3.75 22.5 3.75C32.8556 3.75 41.25 12.1444 41.25 22.5C41.25 32.8556 32.8556 41.25 22.5 41.25Z" fill="black"/>
<path d="M31.875 16.7756C31.185 17.0756 30.4444 17.2819 29.6662 17.3719C30.4612 16.9031 31.0688 16.1606 31.3575 15.2775C30.5999 15.719 29.7733 16.0296 28.9125 16.1963C28.5504 15.8167 28.1148 15.5149 27.6322 15.3092C27.1496 15.1036 26.6302 14.9984 26.1056 15C23.9813 15 22.26 16.6969 22.26 18.7875C22.26 19.0838 22.2938 19.3725 22.3594 19.65C20.8356 19.5777 19.3437 19.1885 17.9787 18.5073C16.6138 17.8261 15.4058 16.8679 14.4319 15.6938C14.0898 16.2696 13.9097 16.9271 13.9106 17.5969C13.9106 18.9094 14.5912 20.0719 15.6225 20.7488C15.0121 20.7296 14.4147 20.5671 13.8787 20.2744V20.3213C13.8845 21.2015 14.1952 22.0525 14.758 22.7294C15.3207 23.4063 16.1006 23.8673 16.965 24.0338C16.3975 24.1838 15.8038 24.2056 15.2269 24.0975C15.4784 24.8548 15.9594 25.5149 16.6032 25.9863C17.2469 26.4578 18.0215 26.717 18.8194 26.7281C17.4506 27.7829 15.7699 28.3528 14.0419 28.3481C13.7325 28.3481 13.4269 28.3294 13.125 28.2956C14.8884 29.4118 16.9331 30.003 19.02 30C26.0962 30 29.9644 24.2288 29.9644 19.2225L29.9513 18.7313C30.7056 18.2012 31.3574 17.5386 31.875 16.7756Z" fill="black"/>
</svg>
