<svg width="40" height="26" viewBox="0 0 40 26" fill="none" xmlns="http://www.w3.org/2000/svg">
<path d="M37.1429 17.1429H2.85714C1.27946 17.1429 0 18.4223 0 20V22.8571C0 24.4348 1.27946 25.7143 2.85714 25.7143H37.1429C38.7205 25.7143 40 24.4348 40 22.8571V20C40 18.4223 38.7205 17.1429 37.1429 17.1429ZM37.1429 0H2.85714C1.27946 0 0 1.27946 0 2.85714V5.71429C0 7.29196 1.27946 8.57143 2.85714 8.57143H37.1429C38.7205 8.57143 40 7.29196 40 5.71429V2.85714C40 1.27946 38.7205 0 37.1429 0Z" fill="white"/>
</svg>
